<svg id="Layer_1" data-name="Layer 1" xmlns="http://www.w3.org/2000/svg" xmlns:xlink="http://www.w3.org/1999/xlink" viewBox="0 0 1244.1 1634.94"><defs><style>.cls-1{fill:url(#linear-gradient);}.cls-2{fill:url(#linear-gradient-2);}.cls-3{fill:url(#linear-gradient-3);}.cls-4{fill:url(#linear-gradient-4);}.cls-5{fill:url(#linear-gradient-5);}.cls-6{fill:none;}.cls-6,.cls-7{clip-rule:evenodd;}.cls-10,.cls-12,.cls-25,.cls-7{fill:#62177f;}.cls-8{clip-path:url(#clip-path);}.cls-9{fill:url(#linear-gradient-6);}.cls-10,.cls-16,.cls-18,.cls-20,.cls-22,.cls-24{fill-rule:evenodd;}.cls-11{clip-path:url(#clip-path-2);}.cls-13{clip-path:url(#clip-path-3);}.cls-14{fill:url(#linear-gradient-7);}.cls-15{mask:url(#mask);}.cls-16{fill:#fde3a7;}.cls-17{mask:url(#mask-2);}.cls-18{fill:#1e003d;}.cls-19{mask:url(#mask-3);}.cls-20{fill:#ffbcd8;}.cls-21{mask:url(#mask-4);}.cls-22{fill:#102770;}.cls-23{mask:url(#mask-5);}.cls-24{fill:#9a0038;}.cls-25{font-size:321.39px;font-family:Orbitron-Medium, Orbitron;font-weight:500;}.cls-26{letter-spacing:-0.01em;}</style><linearGradient id="linear-gradient" x1="1565.16" y1="1066.02" x2="1085.76" y2="1852.33" gradientTransform="translate(360.65 -254.86)" gradientUnits="userSpaceOnUse"><stop offset="0" stop-color="#fff"/><stop offset="1"/></linearGradient><linearGradient id="linear-gradient-2" x1="1590.96" y1="1266.62" x2="1229.8" y2="1714.23" gradientTransform="translate(404.41 -280.21)" xlink:href="#linear-gradient"/><linearGradient id="linear-gradient-3" x1="2020.99" y1="1267.16" x2="1697.47" y2="1685.98" gradientTransform="translate(469.15 -236.86)" xlink:href="#linear-gradient"/><linearGradient id="linear-gradient-4" x1="1713.52" y1="2002.53" x2="1647.04" y2="2496.7" gradientTransform="translate(464.44 -113.43)" xlink:href="#linear-gradient"/><linearGradient id="linear-gradient-5" x1="2066.38" y1="2473.01" x2="1632.07" y2="1670.86" gradientTransform="translate(500.84 -113.43)" xlink:href="#linear-gradient"/><clipPath id="clip-path" transform="translate(-1337.4 -1122.62)"><path class="cls-6" d="M2322.93,1960.63c0,80.32-65.49,145.81-145.81,145.81l-839.72,1.72v258.56h828.38c261.12-171.15,149.25-453.89,147-459.38a145.06,145.06,0,0,1,10.1,53.29"/></clipPath><linearGradient id="linear-gradient-6" x1="1054.35" y1="782.58" x2="21.75" y2="1252.34" gradientUnits="userSpaceOnUse"><stop offset="0" stop-color="#003780"/><stop offset="1" stop-color="#ff8cc8"/></linearGradient><clipPath id="clip-path-2" transform="translate(-1337.4 -1122.62)"><path class="cls-7" d="M2083.79,1556.25c227.25,0,333.85,81.12,333.85,81.12,29.11-51.37,43.87-109.31,43.87-168.65,0-190.48-155.61-346.1-346.09-346.1H1966.35c-376.7,30-370.39,258.56-370.39,258.56h521.17c47.75,0,87.54,39.79,87.54,87.54s-39.79,87.53-87.54,87.53Z"/></clipPath><clipPath id="clip-path-3" transform="translate(-1337.4 -1122.62)"><path class="cls-6" d="M2312.91,1907.56c4.15,10.49,111.58,289.59-147.13,459.16h11.34c223.05,0,404.37-181.33,404.37-404.37,0-129.21-61.25-248.68-163.85-325,0,0-106.6-81.12-333.85-81.12H1596V1381.18s-6.31-228.52,370.39-258.56H1337.4v692.2h839.72c61.53,0,114.36,38.43,135.71,92.52,0,.05,0,.13.08.22"/></clipPath><linearGradient id="linear-gradient-7" x1="529.62" y1="-8.63" x2="680.3" y2="1019.54" gradientUnits="userSpaceOnUse"><stop offset="0" stop-color="#ffcf4b"/><stop offset="1" stop-color="#ba1c58"/></linearGradient><mask id="mask" x="0" y="0" width="548.07" height="408.39" maskUnits="userSpaceOnUse"><g transform="translate(-1337.4 -1122.62)"><rect class="cls-1" x="1337.4" y="1122.62" width="548.07" height="408.39"/></g></mask><mask id="mask-2" x="258.56" y="0" width="370.4" height="258.57" maskUnits="userSpaceOnUse"><g transform="translate(-1337.4 -1122.62)"><rect class="cls-2" x="1595.95" y="1122.62" width="370.4" height="258.57"/></g></mask><mask id="mask-3" x="641.13" y="0" width="482.98" height="514.75" maskUnits="userSpaceOnUse"><g transform="translate(-1337.4 -1122.62)"><rect class="cls-3" x="1978.53" y="1122.62" width="482.98" height="514.75"/></g></mask><mask id="mask-4" x="613.32" y="784.72" width="387.8" height="459.38" maskUnits="userSpaceOnUse"><g transform="translate(-1337.4 -1122.62)"><rect class="cls-4" x="1950.71" y="1907.34" width="387.8" height="459.38"/></g></mask><mask id="mask-5" x="828.39" y="514.75" width="415.71" height="729.35" maskUnits="userSpaceOnUse"><g transform="translate(-1337.4 -1122.62)"><rect class="cls-5" x="2165.78" y="1637.37" width="415.71" height="729.35"/></g></mask></defs><g class="cls-8"><rect class="cls-9" y="784.72" width="1089.5" height="459.38"/></g><path class="cls-10" d="M2083.79,1556.25c227.25,0,333.85,81.12,333.85,81.12,29.11-51.37,43.87-109.31,43.87-168.65,0-190.48-155.61-346.1-346.09-346.1H1966.35c-376.7,30-370.39,258.56-370.39,258.56h521.17c47.75,0,87.54,39.79,87.54,87.54s-39.79,87.53-87.54,87.53Z" transform="translate(-1337.4 -1122.62)"/><g class="cls-11"><rect class="cls-12" x="252.25" width="871.86" height="514.75"/></g><g class="cls-13"><rect class="cls-14" width="1244.1" height="1244.1"/></g><g class="cls-15"><path class="cls-16" d="M1337.4,1531c30.8-370.1,548.06-408.39,548.06-408.39H1337.4Z" transform="translate(-1337.4 -1122.62)"/></g><g class="cls-17"><path class="cls-18" d="M1811.76,1381.18C1774,1265,1966.35,1122.62,1966.35,1122.62c-376.7,30-370.39,258.56-370.39,258.56Z" transform="translate(-1337.4 -1122.62)"/></g><g class="cls-19"><path class="cls-20" d="M1978.53,1122.62s439.48,75.7,439.11,514.75c29.11-51.37,43.87-109.31,43.87-168.65,0-190.48-155.61-346.1-346.09-346.1Z" transform="translate(-1337.4 -1122.62)"/></g><g class="cls-21"><path class="cls-22" d="M1950.71,2106.9c338.67,2.13,215.07,259.82,215.07,259.82,261.12-171.15,149.25-453.89,147-459.38a145.06,145.06,0,0,1,10.1,53.29c0,80.32-65.49,145.81-145.81,145.81Z" transform="translate(-1337.4 -1122.62)"/></g><g class="cls-23"><path class="cls-24" d="M2417.64,1637.37c128.35,415.72-104.81,270-104.81,270,2.2,5.49,114.07,288.23-147,459.38h11.34c223.05,0,404.37-181.33,404.37-404.37,0-129.21-61.25-248.68-163.85-325" transform="translate(-1337.4 -1122.62)"/></g><text class="cls-25" transform="translate(0 1554.59) scale(0.95 1)">Bek<tspan class="cls-26" x="697.41" y="0">a</tspan><tspan x="916.28" y="0">rt</tspan></text><path class="cls-10" d="M2111.91,2677.21" transform="translate(-1337.4 -1122.62)"/></svg>